<svg t="1565834234581" class="icon" viewBox="0 0 1130 1024" version="1.1" xmlns="http://www.w3.org/2000/svg" p-id="6225"
     width="64" height="64">
  <path
    d="M167.787952 866.081928h483.624096c-22.207229-22.207229-39.479518-46.881928-51.816867-74.024097H167.787952c-51.816867 0-93.763855-41.946988-93.763856-93.763855V167.787952C74.024096 115.971084 115.971084 74.024096 167.787952 74.024096h668.684337c51.816867 0 93.763855 41.946988 93.763856 93.763856v288.693976c27.142169 12.337349 51.816867 29.609639 74.024096 51.816867V167.787952c0-91.296386-74.024096-167.787952-167.787952-167.787952H167.787952C74.024096 0 0 74.024096 0 167.787952v532.973494c0 91.296386 74.024096 165.320482 167.787952 165.320482zM868.549398 932.703614c-14.804819 2.46747-27.142169 4.93494-41.946988 4.93494-14.804819 0-29.609639-2.46747-44.414458-4.93494H37.012048c-19.739759 0-37.012048 17.272289-37.012048 37.012049s17.272289 37.012048 37.012048 37.012048h930.236145l-74.024097-74.024097h-24.674698z"
    fill="#8a8a8a" p-id="6226"></path>
  <path
    d="M1117.763855 962.313253l-113.503614-113.503614c39.479518-41.946988 61.686747-98.698795 61.686747-157.918073 0-130.775904-106.101205-234.409639-234.409639-234.409638-81.426506 0-152.983133 41.946988-194.93012 103.633735 0-2.46747 0-4.93494-2.46747-7.40241l-37.012048-44.414458v-81.426506c0-66.621687-46.881928-125.840964-111.036145-145.580723v-17.272289c0-19.739759-14.804819-37.012048-34.544578-37.012048h-14.804819c-19.739759 0-34.544578 17.272289-34.544579 37.012048v17.272289c-64.154217 19.739759-111.036145 76.491566-111.036144 145.580723v81.426506l-37.012048 44.414458c-2.46747 4.93494-4.93494 9.86988-2.46747 12.337349 2.46747 4.93494 7.40241 7.40241 12.337349 7.40241h362.718072c2.46747 0 2.46747 0 4.93494-2.46747-19.739759 34.544578-32.077108 74.024096-32.077108 118.438554 0 130.775904 106.101205 234.409639 234.409638 234.409639 41.946988 0 81.426506-9.86988 113.503615-29.609639l118.438554 118.438555c7.40241 7.40241 17.272289 9.86988 27.142169 9.869879s19.739759-2.46747 27.142168-9.869879c12.337349-12.337349 12.337349-37.012048-2.46747-49.349398zM434.274699 254.149398h14.804819c4.93494 0 9.86988 4.93494 9.86988 9.869879v12.33735h-34.544579v-12.33735c0-4.93494 4.93494-9.86988 9.86988-9.869879z m-145.580723 293.628915l22.207229-27.142168c2.46747-2.46747 2.46747-4.93494 2.46747-7.40241v-86.361446c0-69.089157 59.219277-125.840964 128.308433-125.840964 69.089157 0 128.308434 56.751807 128.308434 125.840964v86.361446c0 2.46747 0 4.93494 2.46747 7.40241l22.207229 27.142168H288.693976zM671.151807 690.891566c0-88.828916 71.556627-160.385542 160.385542-160.385542s160.385542 71.556627 160.385543 160.385542-71.556627 160.385542-160.385543 160.385542-160.385542-71.556627-160.385542-160.385542z"
    fill="#8a8a8a" p-id="6227"></path>
  <path
    d="M495.961446 599.595181c0-7.40241-4.93494-12.337349-12.33735-12.33735s-12.337349 4.93494-12.337349 12.33735-12.337349 17.272289-27.142169 17.272289c-17.272289 0-27.142169-7.40241-27.142168-17.272289 0-7.40241-4.93494-12.337349-12.33735-12.33735s-12.337349 4.93494-12.337349 12.33735c0 22.207229 24.674699 41.946988 54.284337 41.946988 27.142169 0 49.349398-17.272289 49.349398-41.946988zM187.527711 254.149398c-7.40241 7.40241-7.40241 17.272289 0 24.674698l46.881928 46.881928c2.46747 2.46747 7.40241 4.93494 12.337349 4.93494s9.86988-2.46747 12.337349-4.93494c7.40241-7.40241 7.40241-17.272289 0-24.674699l-46.881927-46.881927c-4.93494-4.93494-17.272289-4.93494-24.674699 0zM424.404819 120.906024v69.089157c0 9.86988 7.40241 17.272289 17.272289 17.272289s17.272289-7.40241 17.27229-17.272289V120.906024c0-9.86988-7.40241-17.272289-17.27229-17.272289s-17.272289 7.40241-17.272289 17.272289zM663.749398 246.746988l-54.284338 54.284337c-7.40241 7.40241-7.40241 17.272289 0 24.674699 2.46747 2.46747 7.40241 4.93494 12.33735 4.93494s9.86988-2.46747 12.337349-4.93494l54.284337-54.284337c7.40241-7.40241 7.40241-17.272289 0-24.674699-7.40241-4.93494-17.272289-4.93494-24.674698 0z"
    fill="#8a8a8a" p-id="6228"></path>
</svg>
