<svg t="1565688697249" class="icon" viewBox="0 0 1024 1024" version="1.1" xmlns="http://www.w3.org/2000/svg" p-id="3595"
     width="16" height="16">
  <path
    d="M511.786667 85.333333c-235.733333 0-426.453333 190.933333-426.453333 426.666667s190.72 426.666667 426.453333 426.666667c235.733333 0 426.88-190.933333 426.88-426.666667s-191.146667-426.666667-426.88-426.666667zM807.253333 341.333333l-125.866667 0c-13.866667-53.333333-33.28-104.533333-58.88-151.893333 78.506667 26.88 143.786667 81.28 184.746667 151.893333zM512 172.16c35.626667 51.2 63.36 108.16 81.493333 169.173333l-162.986667 0c18.133333-61.013333 45.866667-117.973333 81.493333-169.173333zM181.76 597.333333c-7.04-27.306667-11.093333-55.893333-11.093333-85.333333s4.053333-58.026667 11.093333-85.333333l144 0c-3.413333 27.946667-5.76 56.32-5.76 85.333333s2.346667 57.386667 5.973333 85.333333l-144.213333 0zM216.533333 682.666667l125.866667 0c13.866667 53.333333 33.28 104.533333 58.88 152.106667-78.506667-26.88-143.786667-81.493333-184.746667-152.106667zM342.4 341.333333l-125.866667 0c40.96-70.613333 106.24-125.226667 184.746667-152.106667-25.6 47.573333-45.013333 98.773333-58.88 152.106667zM512 851.84c-35.413333-51.2-63.146667-108.16-81.493333-169.173333l162.986667 0c-18.346667 61.013333-46.08 117.973333-81.493333 169.173333zM611.84 597.333333l-199.68 0c-4.053333-27.946667-6.826667-56.32-6.826667-85.333333s2.773333-57.386667 6.826667-85.333333l199.68 0c4.053333 27.946667 6.826667 56.32 6.826667 85.333333s-2.773333 57.386667-6.826667 85.333333zM622.72 834.56c25.6-47.573333 45.013333-98.56 58.88-151.893333l125.866667 0c-41.173333 70.613333-106.453333 125.013333-184.746667 151.893333zM698.026667 597.333333c3.413333-27.946667 5.973333-56.32 5.973333-85.333333s-2.346667-57.386667-5.973333-85.333333l144 0c7.04 27.306667 11.306667 55.893333 11.306667 85.333333s-4.053333 58.026667-11.306667 85.333333l-144 0z"
    p-id="3596" fill="#e6e6e6"></path>
</svg>
