<svg t="1565689106363" class="icon" viewBox="0 0 1024 1024" version="1.1" xmlns="http://www.w3.org/2000/svg" p-id="5066"
     width="16" height="16">
  <path
    d="M563.83 796.296l150.362 79.05a32 32 0 0 0 20.3 3.215c17.419-2.987 29.118-19.53 26.13-36.949l-28.716-167.43a112 112 0 0 1 32.21-99.134l121.645-118.574a32 32 0 0 0 9.331-18.313c2.542-17.49-9.576-33.728-27.066-36.27l-168.108-24.427a112 112 0 0 1-84.33-61.269l-75.18-152.332a32 32 0 0 0-14.533-14.534c-15.849-7.821-35.037-1.314-42.858 14.534l-75.18 152.332a112 112 0 0 1-84.33 61.269L155.4 401.892a32 32 0 0 0-18.314 9.33c-12.336 12.656-12.077 32.916 0.579 45.252l121.644 118.574a112 112 0 0 1 32.211 99.135l-28.716 167.43a32 32 0 0 0 3.215 20.3c8.224 15.643 27.572 21.657 43.215 13.433l150.361-79.05a112 112 0 0 1 104.237 0z m-67.008 70.81l-150.362 79.05c-54.75 28.785-122.468 7.735-151.252-47.016a112 112 0 0 1-11.254-71.051l28.717-167.43a32 32 0 0 0-9.204-28.324L81.823 513.76c-44.294-43.176-45.2-114.085-2.025-158.38a112 112 0 0 1 64.097-32.658l168.108-24.428a32 32 0 0 0 24.094-17.505l75.181-152.332c27.375-55.469 94.533-78.243 150.002-50.867a112 112 0 0 1 50.867 50.867l75.18 152.332a32 32 0 0 0 24.094 17.505l168.11 24.428c61.212 8.895 103.625 65.728 94.73 126.941a112 112 0 0 1-32.659 64.097L819.957 632.335a32 32 0 0 0-9.203 28.324l28.717 167.43c10.456 60.965-30.49 118.864-91.455 129.32a112 112 0 0 1-71.052-11.253l-150.36-79.05a32 32 0 0 0-29.782 0z"
    p-id="5067" fill="#e6e6e6"></path>
</svg>
